<?xml version="1.0" ?><svg id="Layer_2" style="enable-background:new 0 0 64 64;" version="1.1" viewBox="0 0 64 64" xml:space="preserve" xmlns="http://www.w3.org/2000/svg" xmlns:xlink="http://www.w3.org/1999/xlink"><g><path d="M10.75,31c1.85,1.53,4.31,2.02,6.69,2.02c1.18,0,2.34-0.12,3.4-0.3c0.01,0.01,0.01,0.02,0.02,0.03l-2.33,4.67   c-0.54,0.13-1.08,0.28-1.61,0.47c-3.41,1.23-5.55,3.49-6.36,6.72C8.03,54.71,8.01,59.79,8.01,60c0,0.55,0.45,1,1,1h26.5   c0.49,0,0.91-0.35,0.99-0.84c0.02-0.12,0.48-2.91,0.41-6.62c-0.01-0.55-0.46-0.98-1.02-0.98c-0.55,0.01-0.99,0.47-0.98,1.02   c0.04,2.36-0.14,4.36-0.27,5.42H10.05c0.13-1.92,0.62-6.58,2.45-13.9c0.64-2.58,2.31-4.32,5.1-5.32c3.25-1.17,6.76-0.94,9.89,0.65   c3.29,1.67,5.77,4.64,6.8,8.16c0.16,0.53,0.71,0.84,1.24,0.68c0.53-0.16,0.83-0.71,0.68-1.24c-0.94-3.18-2.91-5.95-5.53-7.93   l-0.31-3.43c3.83-1.38,4.74-5.7,4.67-8.65h0.92c0.37,0,0.71-0.2,0.88-0.53s0.15-0.72-0.05-1.03l-1.84-2.76   c-0.04-0.92-0.25-2.07-0.72-3.16c5.69-4.51,1.84-16.32,1.67-16.85C35.76,3.28,35.39,3,34.97,3c-0.01,0-0.01,0-0.02,0   c-0.42,0-0.79,0.26-0.94,0.65C33.98,3.72,31.17,11,25.95,11c-5.84,0-18,0-18,13C7.95,27.1,8.89,29.46,10.75,31z M28.39,38.64   c-2.36-1.2-4.92-1.71-7.45-1.56l1.31-2.63c1.41,1.45,3.28,2.64,5.65,2.64c0.16,0,0.33-0.03,0.5-0.04l0.15,1.68   C28.49,38.7,28.44,38.67,28.39,38.64z M33.96,26c-0.29,0-0.56,0.12-0.75,0.34c-0.19,0.21-0.28,0.5-0.24,0.79   c0.01,0.07,0.82,7.06-4.17,7.89c-5.12,0.85-7.87-6.29-7.9-6.37c-0.1-0.27-0.31-0.48-0.57-0.58C20.2,28.02,20.08,28,19.96,28   c-0.15,0-0.31,0.04-0.45,0.1c-0.51,0.25-1.77-0.4-2.36-1.42c-0.67-1.16,0.08-1.66,0.36-1.85c0.42-0.28,0.84-0.37,1.31-0.26   c1.42,0.32,2.85,2.23,3.28,2.94c0.25,0.42,0.76,0.59,1.22,0.42c0.45-0.18,0.71-0.65,0.62-1.13c-0.31-1.56-0.48-3.24-0.41-3.92   c0.53-0.24,0.84-0.8,1.12-1.3c0.64-1.15,1.44-2.58,4.31-2.58c1.58,0,2.53,0.78,3.11,1.72c0,0,0,0,0,0c0,0,0,0,0,0   c0.86,1.4,0.89,3.16,0.89,3.28c0,0.2,0.06,0.39,0.17,0.55L34.09,26H33.96z M25.95,13c4.36,0,7.23-3.6,8.72-6.16   c0.75,3.41,1.5,9.34-1.51,11.98c-0.93-1.06-2.27-1.82-4.2-1.82c-4.04,0-5.35,2.34-6.06,3.6c-0.08,0.14-0.18,0.32-0.25,0.44   c-0.27,0.07-0.5,0.22-0.69,0.44c-0.34,0.41-0.48,1.19-0.44,2.33c-0.65-0.54-1.42-1-2.26-1.18c-1-0.23-1.99-0.04-2.86,0.55   c-1.58,1.05-1.97,2.83-0.98,4.52c0.81,1.39,2.44,2.52,3.95,2.47c0.1,0.21,0.22,0.45,0.36,0.72c-2.39,0.29-5.65,0.29-7.69-1.41   c-1.38-1.15-2.08-2.98-2.08-5.47C9.95,13.85,18.21,13,25.95,13z"/><path d="M44.09,27.83l7.85,2.61c0.97,0.32,1.5,1.38,1.18,2.36c-0.04,0.14-0.12,0.28-0.23,0.45c-0.15,0.22-0.2,0.49-0.15,0.75   c0.05,0.26,0.2,0.49,0.42,0.64c0.75,0.5,1.1,1.78,0.76,2.79c-0.34,1.01-1.37,1.85-2.29,1.78c-0.26-0.01-0.53,0.08-0.72,0.26   s-0.32,0.43-0.33,0.69c-0.01,0.2-0.04,0.36-0.08,0.49c-0.32,0.98-1.38,1.5-2.36,1.18l-7.85-2.61c-0.52-0.17-1.09,0.11-1.26,0.63   c-0.17,0.52,0.11,1.09,0.63,1.26l7.85,2.61c0.4,0.13,0.81,0.2,1.22,0.2c1.62,0,3.13-1.03,3.67-2.64c0.02-0.05,0.03-0.1,0.05-0.15   c1.48-0.32,2.86-1.53,3.37-3.07c0.51-1.54,0.13-3.34-0.86-4.48c0.02-0.05,0.04-0.1,0.05-0.15c0.67-2.02-0.43-4.21-2.45-4.88   l-7.85-2.61c-0.52-0.18-1.09,0.11-1.26,0.63C43.28,27.09,43.56,27.66,44.09,27.83z"/><path d="M38.71,31.32l5.69,1.89c0.1,0.04,0.21,0.05,0.32,0.05c0.42,0,0.81-0.27,0.95-0.69c0.17-0.52-0.11-1.09-0.63-1.26   l-5.69-1.89c-0.52-0.18-1.09,0.11-1.26,0.63C37.91,30.58,38.19,31.14,38.71,31.32z"/><path d="M36.82,33.85c-0.17,0.52,0.11,1.09,0.63,1.26l5.69,1.89c0.1,0.04,0.21,0.05,0.32,0.05c0.42,0,0.81-0.27,0.95-0.69   c0.17-0.52-0.11-1.09-0.63-1.26l-5.69-1.89C37.56,33.04,36.99,33.32,36.82,33.85z"/></g></svg>